<?xml version="1.0" standalone="no"?>
<!DOCTYPE svg PUBLIC "-//W3C//DTD SVG 20010904//EN"
 "http://www.w3.org/TR/2001/REC-SVG-20010904/DTD/svg10.dtd">
<svg version="1.0" xmlns="http://www.w3.org/2000/svg"
 width="512.000000pt" height="512.000000pt" viewBox="0 0 512.000000 512.000000"
 preserveAspectRatio="xMidYMid meet">

<g transform="translate(0.000000,512.000000) scale(0.100000,-0.100000)"
fill="currentColor" stroke="none">
<path d="M2509 4928 c-20 -5 -50 -24 -67 -41 -31 -33 -2277 -3885 -2270 -3893
3 -2 745 -3 1651 -2 l1645 3 -121 202 -122 203 -1092 0 c-765 0 -1093 3 -1093
11 0 7 1725 3127 1947 3522 6 11 -436 7 -478 -5z"/>
<path d="M3112 4563 c-93 -161 -1601 -2850 -1607 -2866 -7 -16 10 -17 273 -17
l279 0 558 970 c307 534 561 970 565 970 4 0 441 -772 971 -1715 l964 -1714 3
377 c1 236 -2 395 -8 426 -7 34 -313 609 -977 1835 -531 983 -970 1790 -974
1794 -4 5 -25 -22 -47 -60z"/>
<path d="M3033 2796 l-141 -244 320 -554 c176 -304 419 -717 541 -917 122
-201 224 -368 225 -373 2 -4 -892 -8 -1987 -8 l-1991 0 0 -190 c0 -138 4 -200
14 -223 17 -42 66 -83 114 -97 26 -8 730 -10 2344 -8 l2308 3 -796 1420 c-438
781 -799 1424 -803 1428 -4 4 -71 -102 -148 -237z"/>
</g>
</svg>
